<svg xmlns="http://www.w3.org/2000/svg" version="1.0" viewBox="27.55 8.9 16.02 7.1"><defs><clipPath id="a"><path d="M27.555 8.895h16.02V16h-16.02Zm0 0"/></clipPath><clipPath id="b"><path d="M29.016 8.895H41.98c.81 0 1.461.652 1.461 1.457v4.07c0 .808-.652 1.46-1.46 1.46H29.015a1.458 1.458 0 0 1-1.461-1.46v-4.07c0-.805.652-1.457 1.46-1.457"/></clipPath><clipPath id="c"><path d="M34.047 11.195h2.918v2.188h-2.918Zm0 0"/></clipPath></defs><g clip-path="url(#a)"><g clip-path="url(#b)"><path fill="#76323f" d="M27.555 8.895h15.879v6.98h-15.88Zm0 0"/></g></g><g clip-path="url(#c)"><path fill="#fcfaf5" d="M35.258 11.36c.11-.165.383-.165.492 0l.555.828.55.828c.11.164-.027.367-.246.367H34.4c-.22 0-.356-.203-.247-.367l.555-.829Zm0 0"/></g><path fill="#fcfaf5" d="m30.695 13.19-.75-.907-.25.188v.719h-.266v-1.891h.266v.953l.906-.953h.312l-.812.828.906 1.063Zm2.041 0v-.875H31.72v.875h-.265v-1.891h.265v.797h1.016v-.797h.266v1.89Zm7.282 0v-1.266c0-.133.003-.27.015-.406a3.865 3.865 0 0 1-.11.375l-.5 1.297h-.171l-.5-1.297-.078-.219-.047-.156.016.156v1.516h-.235v-1.891h.344l.5 1.312c.02.055.035.11.047.172a.7.7 0 0 0 .047.125c0-.03.007-.082.03-.156a.46.46 0 0 0 .048-.14l.5-1.313h.328v1.89Zm.903 0v-1.891h.266v1.89Zm0 0"/></svg>